<svg width="61" height="61" viewBox="0 0 61 61" fill="none" xmlns="http://www.w3.org/2000/svg">
<path fill-rule="evenodd" clip-rule="evenodd" d="M30.6208 60.2702C47.1894 60.2702 60.6208 46.8387 60.6208 30.2702C60.6208 13.7017 47.1894 0.270203 30.6208 0.270203C14.0523 0.270203 0.62085 13.7017 0.62085 30.2702C0.62085 46.8387 14.0523 60.2702 30.6208 60.2702ZM47.5655 31.0749H42.7686V33.0124H45.4405C45.2322 33.8978 44.8702 34.541 44.3546 34.9421C43.839 35.3431 43.2713 35.5436 42.6515 35.5436C41.5525 35.5436 40.7192 35.2025 40.1515 34.5202C39.589 33.8327 39.3077 32.8535 39.3077 31.5827C39.3077 30.3067 39.5994 29.3015 40.1827 28.5671C40.7713 27.8327 41.5785 27.4655 42.6046 27.4655C43.2192 27.4655 43.7556 27.6374 44.214 27.9811C44.6775 28.3197 44.9822 28.7754 45.128 29.3483H47.5186C47.4145 28.265 46.9197 27.3509 46.0343 26.6061C45.1488 25.8561 43.964 25.4811 42.4796 25.4811C40.7452 25.4811 39.3754 26.041 38.3702 27.1608C37.365 28.2754 36.8624 29.7415 36.8624 31.5593C36.8624 33.377 37.3494 34.8353 38.3233 35.9343C39.3025 37.028 40.5603 37.5749 42.0968 37.5749C43.6332 37.5749 44.8442 36.9942 45.7296 35.8327L45.964 37.2702H47.5655V31.0749ZM22.1996 27.8171H16.1058V30.2311H21.7074V32.2624H16.1058V35.239H22.473V37.2702H13.7543V25.7858H22.1996V27.8171ZM32.113 25.7858H34.3474V37.2702H31.949L27.2615 29.0749H27.2302V37.2702H24.988V25.7858H27.5193L32.0818 33.7858H32.113V25.7858Z" fill="white"/>
</svg>
