<svg width="740" height="223" viewBox="0 0 740 223" fill="none" xmlns="http://www.w3.org/2000/svg">
<g clip-path="url(#clip0)">
<path fill-rule="evenodd" clip-rule="evenodd" d="M0.743211 31.8447L0.986454 63.6885L39.3688 87.4382C60.4791 100.5 77.84 111.489 77.9482 111.859C78.0564 112.228 60.6863 123.256 39.3466 136.366L0.548063 160.202L0.53604 191.601C0.529565 208.87 0.745062 223 1.0142 223C1.28426 223 30.2727 205.229 65.4337 183.509C101.774 161.059 129.999 144.189 130.84 144.414C131.654 144.632 160.77 162.404 195.542 183.906C230.316 205.407 258.929 223 259.128 223C259.327 223 259.489 208.854 259.489 191.566V160.131L221.061 136.398C199.925 123.344 182.469 112.404 182.271 112.086C182.073 111.768 199.197 100.841 220.324 87.8058C241.451 74.7694 258.912 63.6518 259.126 63.0999C259.34 62.548 259.405 48.2584 259.271 31.3469L259.027 0.597736L194.755 40.3046C159.407 62.1428 130.065 79.851 129.552 79.6548C128.751 79.3486 8.37621 5.11279 2.59296 1.35865L0.499969 0L0.743211 31.8447ZM295.779 32.0235L296.022 63.8049L334.404 87.4941C355.515 100.522 372.868 111.486 372.967 111.856C373.067 112.227 355.696 123.256 334.365 136.366L295.584 160.202L295.572 191.601C295.565 208.87 295.76 223 296.006 223C296.251 223 325.165 205.261 360.258 183.579C395.351 161.898 424.525 144.158 425.089 144.158C425.653 144.158 454.828 161.898 489.922 183.579C525.018 205.261 553.91 223 554.128 223C554.346 223 554.525 208.862 554.525 191.583V160.164L516.135 136.477C495.021 123.449 477.562 112.496 477.338 112.137C477.115 111.777 494.229 100.8 515.371 87.7425C536.514 74.686 553.978 63.573 554.181 63.0495C554.384 62.5251 554.441 48.2474 554.307 31.3212L554.062 0.546396L489.783 40.2698C454.43 62.1181 425.05 79.8235 424.493 79.6145C423.937 79.4064 398.965 64.0818 369 45.5595C339.036 27.0372 310.248 9.26389 305.027 6.06255L295.535 0.242023L295.779 32.0235ZM590.595 111.613V223H618.804H647.012V111.613V0.226447H618.804H590.595V111.613ZM683.083 111.613V223H711.291H739.5V111.613V0.226447H711.291H683.083V111.613Z" fill="white"/>
</g>
<defs>
<clipPath id="clip0">
<rect width="739" height="223" fill="white" transform="translate(0.499969)"/>
</clipPath>
</defs>
</svg>
