<svg width="555" height="223" viewBox="0 0 555 223" fill="none" xmlns="http://www.w3.org/2000/svg">
<path fill-rule="evenodd" clip-rule="evenodd" d="M0.243242 31.8447L0.486485 63.6885L38.8688 87.4382C59.9791 100.5 77.34 111.489 77.4482 111.859C77.5564 112.228 60.1863 123.256 38.8466 136.366L0.0480936 160.202L0.0360702 191.601C0.029596 208.87 0.245092 223 0.514231 223C0.784295 223 29.7727 205.229 64.9337 183.509C101.274 161.059 129.499 144.189 130.34 144.414C131.154 144.632 160.27 162.404 195.042 183.906C229.816 205.407 258.429 223 258.628 223C258.827 223 258.989 208.854 258.989 191.566V160.131L220.561 136.398C199.425 123.344 181.969 112.404 181.771 112.086C181.573 111.768 198.697 100.841 219.824 87.8058C240.951 74.7694 258.412 63.6518 258.626 63.0999C258.84 62.548 258.905 48.2584 258.771 31.3469L258.527 0.597736L194.255 40.3046C158.907 62.1428 129.565 79.851 129.052 79.6548C128.251 79.3486 7.87624 5.11279 2.09299 1.35865L0 0L0.243242 31.8447ZM295.279 32.0235L295.522 63.8049L333.904 87.4941C355.015 100.522 372.368 111.486 372.467 111.856C372.567 112.227 355.196 123.256 333.865 136.366L295.084 160.202L295.072 191.601C295.065 208.87 295.26 223 295.506 223C295.751 223 324.665 205.261 359.758 183.579C394.851 161.898 424.025 144.158 424.589 144.158C425.153 144.158 454.328 161.898 489.422 183.579C524.518 205.261 553.41 223 553.628 223C553.846 223 554.025 208.862 554.025 191.583V160.164L515.635 136.477C494.521 123.449 477.062 112.496 476.838 112.137C476.615 111.777 493.729 100.8 514.871 87.7425C536.014 74.686 553.478 63.573 553.681 63.0495C553.884 62.5251 553.941 48.2474 553.807 31.3212L553.562 0.546396L489.283 40.2698C453.93 62.1181 424.55 79.8235 423.993 79.6145C423.437 79.4064 398.465 64.0818 368.5 45.5595C338.536 27.0372 309.748 9.26389 304.527 6.06255L295.035 0.242023L295.279 32.0235Z" fill="black"/>
</svg>
